# xmcd
# Copyright (C) 1995-1998 Ti Kan
#
# Track frame offsets:
#       150
#       20659
#       38857
#       56709
#       76126
#       97025
#       123411
#       140984
#       165269
#       185473
#       211891
#       232444
#       255243
#       275400
#
# Disc length: 3997 seconds
#
# Revision: 0
# Processed by: cddbd v1.5.2PL0 Copyright (c) Steve Scherf et al.
# Submitted via: CD-Transfer v1.0
#
DISCID=c70f9b0e
DTITLE=Dixie Chicks - Taking The Long Way
DYEAR=06
DGENRE=
TTITLE0=The Long Way Around 
TTITLE1=Easy Silence
TTITLE2=Not Ready To Make Nice
TTITLE3=Everybody Knows
TTITLE4=Bitter End
TTITLE5=Lullaby
TTITLE6=Lubbock Or Leave It
TTITLE7=Silent House  
TTITLE8=Favorite Year
TTITLE9=Voice Inside My Head
TTITLE10=I Like It
TTITLE11=Baby Hold On
TTITLE12=So Hard 
TTITLE13=I Hope
EXTD=
EXTT0=
EXTT1=
EXTT2=
EXTT3=
EXTT4=
EXTT5=
EXTT6=
EXTT7=
EXTT8=
EXTT9=
EXTT10=
EXTT11=
EXTT12=
EXTT13=
PLAYORDER=
